<svg width="985" height="866" viewBox="0 0 985 866" fill="none" xmlns="http://www.w3.org/2000/svg">
<path d="M197.223 0H800.09C809.21 0 817.95 3.6212 824.4 10.067C830.84 16.5128 834.46 25.255 834.46 34.371V72.32H162.852V34.371C162.852 25.255 166.474 16.5128 172.919 10.067C179.365 3.6212 188.108 0 197.223 0Z" fill="#5ABCB9"/>
<path d="M162.852 72.32H834.46V681.098C834.46 689.349 832.84 697.52 829.68 705.143C826.52 712.767 821.9 719.693 816.06 725.528C810.23 731.363 803.3 735.991 795.68 739.149C788.05 742.306 779.88 743.932 771.63 743.932H225.686C217.435 743.932 209.264 742.306 201.641 739.149C194.017 735.991 187.09 731.363 181.256 725.528C175.421 719.693 170.793 712.767 167.635 705.143C164.478 697.52 162.852 689.349 162.852 681.098V72.32Z" fill="url(#paint0_linear_1_4)"/>
<path d="M601.666 504.162H417.453V593.625H601.666V504.162Z" fill="#FFCCB3"/>
<path d="M416.368 559.316C394.764 580.573 386.264 685.26 387.402 743.932H644.572C644.572 743.932 644.11 615.985 624.613 572.869C606.683 533.218 576.879 591.708 416.368 559.316Z" fill="#1F2D49"/>
<path d="M570.713 97.014C570.713 97.014 592.051 72.675 633.469 69.134C674.888 65.593 687.281 101.87 685.511 124.158C683.74 146.446 651.281 192.479 657.773 211.955C664.265 231.43 633.738 221.988 630.411 183.036C627.084 144.085 614.69 89.79 581.051 109.265L570.713 97.014Z" fill="#080B09"/>
<path d="M577.19 85.621C577.19 85.621 582.293 82.664 585.988 89.562C589.684 96.46 596.586 110.467 587.838 114.18C579.09 117.894 577.19 85.621 577.19 85.621Z" fill="#5ABCB9"/>
<path d="M458.876 309.941C458.876 309.941 491.963 347.078 480.959 358.99C459.165 383.472 401.198 429.485 382.205 444.716C381.385 445.344 380.449 445.803 379.45 446.067C378.452 446.332 377.411 446.396 376.388 446.256C375.365 446.116 374.379 445.775 373.489 445.252C372.598 444.729 371.819 444.036 371.198 443.211L326.285 384.162C324.529 381.889 323.71 379.029 323.996 376.17C324.283 373.312 325.653 370.672 327.825 368.792L414.822 293.773L458.876 309.941Z" fill="#5ABCB9"/>
<path d="M406.641 357.154C406.641 357.154 365.407 381.662 361.691 430.904L369.903 441.454C369.903 441.454 375.059 450.44 382.205 444.716C389.351 438.992 422.405 412.515 422.405 412.515L406.641 357.154Z" fill="#0E66AF"/>
<path d="M445.195 375.822C470.915 375.822 491.766 354.972 491.766 329.251C491.766 303.531 470.915 282.68 445.195 282.68C419.475 282.68 398.624 303.531 398.624 329.251C398.624 354.972 419.475 375.822 445.195 375.822Z" fill="#5ABCB9"/>
<path d="M323.925 475.235L283.226 421.347L321.754 391.436L327.793 386.574L370.01 441.783L362.659 447.07L323.925 475.235Z" fill="#FFCCB3"/>
<path d="M362.658 447.07C351.756 432.474 331.255 403.947 321.754 391.436L327.793 386.574L369.903 441.454L362.658 447.07Z" fill="#FF967C"/>
<path d="M302.957 482.71C321.628 482.71 336.764 467.574 336.764 448.903C336.764 430.231 321.628 415.095 302.957 415.095C284.285 415.095 269.149 430.231 269.149 448.903C269.149 467.574 284.285 482.71 302.957 482.71Z" fill="#FFCCB3"/>
<path d="M331.582 430.716C331.582 430.716 222.526 270.56 217.485 256.959C212.579 243.676 186.82 275.639 186.82 275.639L271.223 459.789L331.582 430.716Z" fill="#FFCCB3"/>
<path d="M481.72 207.372L468.61 298.776C468.61 298.776 465.168 310.908 480.442 312.744C495.716 314.581 528.284 310.477 539.915 298.082C551.547 285.687 547.478 279.546 547.478 279.546L522.809 180.336L481.72 207.372Z" fill="#FFCCB3"/>
<path d="M479.896 219.2L511.965 207.873L472.235 266.757L479.896 219.2Z" fill="#FF967C"/>
<path d="M445.437 94.47C445.437 94.47 417.924 159.115 432.263 203.421C441.614 232.316 461.978 237.511 508.616 215.857C551.379 196.003 562.486 180.984 562.486 180.984L568.792 108.921C568.792 108.921 473.378 36.851 445.437 94.47Z" fill="#FFCCB3"/>
<path d="M468.378 272.496C468.378 272.496 433.134 282.288 425.982 288.01C418.829 293.732 413.627 340.241 403.056 363.214C387.406 397.224 377.274 415.317 403.566 452.692C419.423 475.235 414.031 532.544 414.031 532.544H607.097C601.247 419.857 627.132 287.018 627.132 287.018L539.998 266.94C520.352 270.327 468.378 272.496 468.378 272.496Z" fill="#5ABCB9"/>
<path d="M462.215 274.314C462.215 274.314 464.821 256.6 473.15 255.353C481.479 254.106 532.376 246.45 540.293 249.784C548.209 253.117 557.793 274.314 557.793 274.314C557.793 274.314 541.543 313.949 518.21 316.032C494.877 318.116 454.717 310.923 458.964 296.186C463.211 281.45 462.215 274.314 462.215 274.314Z" fill="#5ABCB9"/>
<path d="M446.364 279.699C446.364 279.699 451.994 313.884 482.571 313.345C513.148 312.805 557.581 266.94 557.581 266.94" stroke="white" stroke-width="1.35709" stroke-miterlimit="10"/>
<path d="M584.9 329.251C584.9 329.251 554.516 349.339 563.467 369.609C573.531 392.4 573.444 451.097 544.561 454.776C493.026 461.339 515.417 470.351 539.245 476.11C563.074 481.868 553.318 481.874 553.318 506.56C553.318 524.129 608.531 539.362 607.097 525.166C597.496 430.187 637.403 370.046 584.9 329.251Z" fill="#0E66AF"/>
<path d="M442.985 189.58L468.578 190.846C468.487 191.161 468.348 191.592 468.147 192.099C467.712 193.199 466.99 194.648 465.845 196.051C463.574 198.833 459.608 201.477 452.757 200.784C448.43 199.955 445.97 197.046 444.577 194.292C443.88 192.913 443.457 191.582 443.209 190.596C443.107 190.191 443.034 189.846 442.985 189.58Z" fill="#E56441" stroke="#E56441"/>
<path d="M444.674 147.084C445.743 143.119 444.429 139.317 441.739 138.591C439.049 137.865 436.001 140.491 434.931 144.456C433.862 148.421 435.176 152.223 437.866 152.949C440.556 153.674 443.604 151.049 444.674 147.084Z" fill="#080B09"/>
<path d="M484.267 158.374C485.336 154.409 484.023 150.607 481.332 149.881C478.642 149.156 475.594 151.781 474.524 155.746C473.455 159.711 474.769 163.513 477.459 164.239C480.15 164.965 483.197 162.339 484.267 158.374Z" fill="#080B09"/>
<path d="M434.662 126.604L454.789 132.39C455.139 132.46 455.503 132.4 455.813 132.222C456.123 132.044 456.357 131.76 456.474 131.422C456.566 130.787 456.528 130.14 456.364 129.52C456.199 128.899 455.91 128.319 455.514 127.814C455.119 127.308 454.625 126.888 454.063 126.579C453.501 126.27 452.882 126.077 452.243 126.014L434.956 124.195C433.63 123.837 433.004 126.157 434.662 126.604Z" fill="#080B09"/>
<path d="M503.473 143.809L476.178 138.224C476.425 137.412 476.839 136.66 477.394 136.018C477.949 135.375 478.632 134.856 479.4 134.494C480.167 134.132 481.002 133.934 481.851 133.914C482.7 133.894 483.543 134.052 484.327 134.378L504.251 142.242C504.913 142.42 504.466 144.078 503.473 143.809Z" fill="#080B09"/>
<path d="M456.846 148.218L443.9 165.652L448.775 172.545" stroke="#E56441" stroke-width="2.23881" stroke-linecap="round"/>
<path d="M480.922 338.424C483.429 338.424 485.461 332.81 485.461 325.884C485.461 318.959 483.429 313.344 480.922 313.344C478.415 313.344 476.383 318.959 476.383 325.884C476.383 332.81 478.415 338.424 480.922 338.424Z" fill="white"/>
<path d="M690.131 510.957L622.827 516.472L611.337 467.695L597.496 430.187L668.327 421.71L677.182 463.688L690.131 510.957Z" fill="#FFCCB3"/>
<path d="M670.718 433.046L673.201 444.817L603.449 446.318L598.86 433.884L670.718 433.046Z" fill="#FF967C"/>
<path d="M615.552 378.697C641.272 378.697 662.122 357.847 662.122 332.126C662.122 306.406 641.272 285.555 615.552 285.555C589.831 285.555 568.981 306.406 568.981 332.126C568.981 357.847 589.831 378.697 615.552 378.697Z" fill="#5ABCB9"/>
<path d="M606.57 310.232C606.57 310.232 655.651 302.175 659.819 317.848C668.823 349.364 679.892 399.959 682.584 424.156C682.675 425.184 682.561 426.221 682.25 427.206C681.939 428.19 681.435 429.104 680.769 429.893C680.103 430.682 679.287 431.332 678.369 431.804C677.451 432.276 676.448 432.562 675.418 432.645L601.499 438.955C598.638 439.22 595.785 438.381 593.524 436.608C591.263 434.835 589.767 432.264 589.343 429.423L569.324 338.778L606.57 310.232Z" fill="#5ABCB9"/>
<path d="M462.59 88.325C462.59 88.325 464.331 119.725 490.931 134.941C490.931 134.941 498.71 159.024 527.741 164.688C527.741 164.688 526.026 142.553 539.863 142.787C563.359 143.185 551.802 178.826 535.917 184.673C525.121 188.647 518.619 202.751 534.644 234.894C571.441 221.77 597.319 168.766 587.173 109.961C579.049 62.869 520.668 47.491 508.673 49.025C508.673 49.025 458.859 31.816 432.63 79.013C410.208 119.359 431.148 143.438 431.148 143.438L443.098 107.53C443.098 107.53 448.089 111.035 462.59 88.325Z" fill="#080B09"/>
<path d="M690.38 627.315H512.114C508.666 627.315 505.337 626.056 502.751 623.775C500.166 621.493 498.502 618.346 498.074 614.924L481.62 483.605C481.37 481.614 481.547 479.592 482.139 477.675C482.73 475.757 483.723 473.987 485.051 472.482C486.379 470.978 488.011 469.773 489.841 468.948C491.67 468.122 493.654 467.695 495.66 467.695H706.834C708.84 467.695 710.824 468.122 712.653 468.948C714.483 469.773 716.115 470.978 717.443 472.482C718.771 473.987 719.764 475.757 720.355 477.675C720.947 479.592 721.124 481.614 720.874 483.605L704.42 614.924C703.991 618.346 702.328 621.493 699.743 623.775C697.157 626.056 693.828 627.315 690.38 627.315Z" fill="url(#paint1_linear_1_4)"/>
<path d="M601.666 557.569C608.577 557.569 614.179 551.967 614.179 545.057C614.179 538.146 608.577 532.544 601.666 532.544C594.756 532.544 589.154 538.146 589.154 545.057C589.154 551.967 594.756 557.569 601.666 557.569Z" fill="white"/>
<path d="M191.455 286.16L180.713 265.551C180.713 265.551 142.729 243.823 138.327 235.968C133.924 228.111 132.194 205.681 139.987 199.938C139.987 199.938 109.682 177.176 114.841 172.564C119.983 167.618 179.524 211.849 179.524 211.849C179.524 211.849 172.275 179.263 183.291 177.736C186.275 190.366 191.387 202.396 198.408 213.31C210.006 231.242 211.435 247.303 211.435 247.303L225.104 273.537L191.455 286.16Z" fill="#FFCCB3"/>
<path d="M142.03 200.514L160.383 212.08" stroke="#FF967C" stroke-width="2.87188" stroke-linecap="round" stroke-linejoin="round"/>
<path d="M139.294 213.746L154.87 223.428" stroke="#FF967C" stroke-width="2.87188" stroke-linecap="round" stroke-linejoin="round"/>
<path d="M142.321 228.051L152.71 234.617" stroke="#FF967C" stroke-width="2.87188" stroke-linecap="round" stroke-linejoin="round"/>
<path d="M213.823 44.907C218.654 44.907 222.57 40.991 222.57 36.16C222.57 31.329 218.654 27.413 213.823 27.413C208.992 27.413 205.076 31.329 205.076 36.16C205.076 40.991 208.992 44.907 213.823 44.907Z" fill="white"/>
<path d="M249.151 44.907C253.982 44.907 257.898 40.991 257.898 36.16C257.898 31.329 253.982 27.413 249.151 27.413C244.32 27.413 240.404 31.329 240.404 36.16C240.404 40.991 244.32 44.907 249.151 44.907Z" fill="white"/>
<path d="M282.345 44.907C287.176 44.907 291.092 40.991 291.092 36.16C291.092 31.329 287.176 27.413 282.345 27.413C277.514 27.413 273.598 31.329 273.598 36.16C273.598 40.991 277.514 44.907 282.345 44.907Z" fill="white"/>
<path opacity="0.7" d="M19.597 35.088C54.764 65.08 147.507 133.464 265.295 136.731C267.704 136.803 269.989 137.812 271.666 139.543C273.343 141.273 274.279 143.59 274.276 146V332.633C274.277 335.014 273.363 337.304 271.722 339.029C270.081 340.754 267.839 341.782 265.461 341.9C230.047 343.662 95.754 343.457 6.77 248.188C5.183 246.477 4.30499 244.227 4.31199 241.894V42.156C4.31099 40.385 4.81699 38.65 5.77099 37.157C6.72499 35.665 8.086 34.476 9.694 33.733C11.301 32.989 13.089 32.721 14.844 32.962C16.599 33.202 18.248 33.939 19.597 35.088Z" fill="#FEBB94"/>
<path d="M32.937 90.086C32.937 90.086 60.688 117.051 98.62 133.801" stroke="white" stroke-width="7.4328" stroke-miterlimit="10" stroke-linecap="round"/>
<path opacity="0.4" d="M32.937 122.777C32.937 122.777 71.559 158.802 121.8 172.178" stroke="white" stroke-width="7.4328" stroke-miterlimit="10" stroke-linecap="round"/>
<path d="M27.184 242.315V164.36L54.515 183.918V263.757L27.184 242.315Z" fill="white"/>
<path d="M73.315 273.815V218.272L100.646 234.617V289.524L73.315 273.815Z" fill="white"/>
<path d="M190.183 317.296V261.753L162.852 258.012V312.919L190.183 317.296Z" fill="white"/>
<path d="M235.076 319.674V222.428H207.745V319.039L235.076 319.674Z" fill="white"/>
<path d="M118.084 298.151V272.757L145.415 280.443V308.049L118.084 298.151Z" fill="white"/>
<g opacity="0.7">
<path opacity="0.7" d="M88.048 421.814C123.215 447.636 215.958 515.022 333.746 504.32C334.891 504.186 336.053 504.299 337.151 504.653C338.249 505.007 339.258 505.593 340.11 506.371C340.962 507.149 341.637 508.101 342.088 509.163C342.539 510.225 342.757 511.371 342.727 512.524V699.158C342.667 701.628 341.758 704.002 340.152 705.88C338.547 707.759 336.343 709.026 333.912 709.47C298.497 715.432 151.206 712.488 75.22 636.436C74.434 635.647 73.812 634.711 73.39 633.68C72.968 632.65 72.755 631.546 72.763 630.433V430.695C72.763 422.785 82.029 417.394 88.048 421.814Z" fill="#96BAFD"/>
</g>
<path d="M654.081 621.957C654.081 621.957 663.503 622.739 662.084 627.494C660.664 632.248 652.253 630.054 644.572 634.808C636.892 639.563 606.526 642.956 591.359 640.428C576.191 637.9 571.978 621.957 571.978 621.957C571.978 621.957 569.442 606.831 596.234 605.278C623.025 603.725 635.494 612.322 640.154 621.641L654.081 621.957Z" fill="#FFCCB3"/>
<path d="M583.368 607.629L589.154 623.192" stroke="#E56441" stroke-width="2.23881" stroke-linecap="round"/>
<path d="M598.354 605.095L604.14 620.658" stroke="#E56441" stroke-width="2.23881" stroke-linecap="round"/>
<path d="M614.179 606.413L619.965 621.976" stroke="#E56441" stroke-width="2.23881" stroke-linecap="round"/>
<path opacity="0.7" d="M939.2 436.997C890.15 478.833 760.784 574.222 596.482 578.779C593.122 578.88 589.934 580.287 587.594 582.702C585.255 585.116 583.949 588.347 583.954 591.708V852.043C583.952 855.364 585.228 858.558 587.517 860.965C589.806 863.371 592.933 864.805 596.249 864.969C645.649 867.427 832.97 867.141 957.1 734.251C959.31 731.864 960.54 728.726 960.53 725.471V446.857C960.53 444.386 959.82 441.967 958.49 439.884C957.16 437.802 955.26 436.144 953.02 435.107C950.78 434.07 948.28 433.697 945.84 434.032C943.39 434.367 941.09 435.396 939.2 436.997Z" fill="#5ABCB9"/>
<path d="M920.6 513.714C920.6 513.714 881.89 551.328 828.98 574.693" stroke="white" stroke-width="10.368" stroke-miterlimit="10" stroke-linecap="round"/>
<path opacity="0.4" d="M920.6 559.316C920.6 559.316 866.72 609.566 796.64 628.225" stroke="white" stroke-width="10.368" stroke-miterlimit="10" stroke-linecap="round"/>
<path d="M895.44 354.638H745.698C742.76 354.638 739.851 355.217 737.137 356.341C734.423 357.465 731.957 359.113 729.879 361.19C727.802 363.268 726.154 365.734 725.03 368.448C723.906 371.162 723.327 374.071 723.327 377.009V423.336C723.327 426.274 723.906 429.183 725.03 431.897C726.154 434.612 727.802 437.078 729.879 439.155C731.957 441.233 734.423 442.881 737.137 444.005C739.851 445.129 742.761 445.708 745.698 445.708H798.86L814.54 461.394C816.01 462.863 818 463.688 820.08 463.688C822.16 463.688 824.15 462.863 825.62 461.394L841.3 445.708H895.44C901.37 445.708 907.07 443.351 911.26 439.155C915.46 434.96 917.81 429.269 917.81 423.336V377.009C917.81 371.076 915.46 365.386 911.26 361.19C907.07 356.995 901.37 354.638 895.44 354.638Z" fill="white"/>
<path d="M786.85 385.478C784.85 383.631 782.23 382.606 779.51 382.606C776.79 382.606 774.17 383.631 772.17 385.478L769.406 388.031L766.64 385.478C764.642 383.631 762.021 382.606 759.3 382.606C756.579 382.606 753.958 383.631 751.959 385.478C750.904 386.433 750.061 387.599 749.483 388.9C748.906 390.201 748.608 391.608 748.608 393.031C748.608 394.454 748.906 395.862 749.483 397.163C750.061 398.464 750.904 399.629 751.959 400.584L769.406 416.755L786.85 400.797C787.95 399.848 788.84 398.672 789.44 397.351C790.05 396.029 790.36 394.592 790.36 393.138C790.36 391.684 790.05 390.247 789.44 388.925C788.84 387.603 787.95 386.427 786.85 385.478Z" fill="#F4608A"/>
<path d="M806.33 394.927C806.48 392.968 807.24 391.434 808.6 390.326C809.96 389.219 811.73 388.665 813.9 388.665C815.35 388.665 816.6 388.931 817.64 389.464C818.71 389.975 819.51 390.678 820.04 391.572C820.59 392.467 820.87 393.479 820.87 394.608C820.87 395.928 820.49 397.068 819.72 398.026C818.97 398.985 817.99 399.603 816.78 399.88V400.039C818.16 400.38 819.26 401.051 820.07 402.052C820.88 403.053 821.29 404.363 821.29 405.982C821.29 407.196 821.01 408.293 820.45 409.273C819.9 410.232 819.07 410.988 817.96 411.542C816.85 412.095 815.52 412.372 813.97 412.372C811.71 412.372 809.86 411.787 808.41 410.615C806.96 409.422 806.15 407.74 805.98 405.567H808.79C808.94 406.845 809.46 407.889 810.36 408.698C811.25 409.507 812.45 409.912 813.94 409.912C815.43 409.912 816.56 409.529 817.32 408.762C818.11 407.974 818.51 406.962 818.51 405.727C818.51 404.129 817.97 402.979 816.91 402.276C815.84 401.573 814.23 401.222 812.08 401.222H811.35V398.793H812.12C814.07 398.772 815.56 398.452 816.56 397.835C817.56 397.196 818.06 396.216 818.06 394.895C818.06 393.766 817.69 392.861 816.94 392.179C816.22 391.498 815.17 391.157 813.81 391.157C812.49 391.157 811.42 391.498 810.61 392.179C809.8 392.861 809.32 393.777 809.18 394.927H806.33ZM828.69 408.187L825.12 416.782H823.17L825.5 408.187H828.69ZM846.27 391.636H835.06V398.921C835.55 398.239 836.27 397.686 837.23 397.26C838.19 396.812 839.22 396.589 840.33 396.589C842.1 396.589 843.54 396.961 844.64 397.707C845.75 398.431 846.54 399.379 847.01 400.551C847.5 401.701 847.74 402.926 847.74 404.225C847.74 405.759 847.46 407.132 846.88 408.347C846.31 409.561 845.42 410.519 844.23 411.222C843.06 411.925 841.6 412.277 839.85 412.277C837.62 412.277 835.81 411.701 834.42 410.551C833.04 409.401 832.19 407.867 831.9 405.95H834.74C835.02 407.164 835.6 408.112 836.5 408.794C837.39 409.476 838.52 409.816 839.88 409.816C841.57 409.816 842.83 409.316 843.69 408.315C844.54 407.292 844.96 405.95 844.96 404.289C844.96 402.627 844.54 401.349 843.69 400.455C842.83 399.539 841.58 399.081 839.92 399.081C838.79 399.081 837.8 399.358 836.94 399.912C836.11 400.444 835.51 401.179 835.12 402.116H832.38V389.08H846.27V391.636ZM851.26 409.88C853.96 407.708 856.08 405.929 857.61 404.544C859.15 403.139 860.44 401.679 861.48 400.167C862.55 398.633 863.08 397.132 863.08 395.662C863.08 394.278 862.74 393.191 862.06 392.403C861.4 391.594 860.32 391.189 858.83 391.189C857.38 391.189 856.25 391.647 855.44 392.563C854.65 393.457 854.23 394.661 854.16 396.173H851.35C851.44 393.788 852.16 391.945 853.52 390.646C854.89 389.346 856.65 388.697 858.8 388.697C860.99 388.697 862.73 389.304 864 390.518C865.3 391.732 865.95 393.404 865.95 395.534C865.95 397.302 865.42 399.028 864.36 400.71C863.31 402.372 862.12 403.842 860.78 405.12C859.44 406.376 857.72 407.846 855.63 409.529H866.62V411.957H851.26V409.88ZM884.2 391.381L875.32 412.213H872.38L881.39 391.668H869.06V389.176H884.2V391.381Z" fill="#5ABCB9"/>
<path opacity="0.7" d="M16.867 781.04H129.764C131.979 781.04 134.172 780.604 136.219 779.756C138.265 778.909 140.125 777.666 141.691 776.1C143.257 774.534 144.499 772.675 145.347 770.628C146.195 768.582 146.631 766.388 146.631 764.174V729.246C146.631 727.031 146.195 724.838 145.347 722.791C144.499 720.745 143.257 718.885 141.691 717.319C140.125 715.753 138.265 714.511 136.219 713.663C134.172 712.815 131.979 712.379 129.764 712.379H89.687L77.86 700.552C76.753 699.445 75.251 698.823 73.685 698.823C72.12 698.823 70.618 699.445 69.511 700.552L57.684 712.379H16.867C12.393 712.379 8.103 714.156 4.94 717.319C1.777 720.482 0 724.772 0 729.246V764.174C0 768.647 1.777 772.937 4.94 776.1C8.103 779.263 12.393 781.04 16.867 781.04Z" fill="#5ABCB9"/>
<path d="M70.052 755.295C72.092 753.657 73.689 752.316 74.846 751.272C76.002 750.212 76.974 749.112 77.761 747.972C78.564 746.815 78.965 745.683 78.965 744.575C78.965 743.531 78.708 742.712 78.194 742.118C77.696 741.508 76.885 741.202 75.761 741.202C74.669 741.202 73.818 741.548 73.208 742.238C72.614 742.913 72.292 743.82 72.244 744.96H70.124C70.189 743.162 70.735 741.773 71.762 740.793C72.79 739.813 74.115 739.324 75.737 739.324C77.391 739.324 78.7 739.781 79.664 740.697C80.643 741.612 81.133 742.873 81.133 744.479C81.133 745.812 80.732 747.112 79.929 748.381C79.142 749.634 78.242 750.742 77.231 751.705C76.219 752.653 74.926 753.761 73.352 755.03H81.639V756.86H70.052V755.295ZM83.643 753.175V751.513L92.098 739.805H94.724V751.272H97.133V753.175H94.724V757.053H92.556V753.175H83.643ZM92.652 742.094L86.172 751.272H92.652V742.094ZM99.275 744.021C99.387 742.543 99.957 741.387 100.985 740.552C102.013 739.717 103.346 739.299 104.984 739.299C106.076 739.299 107.015 739.5 107.802 739.902C108.605 740.287 109.207 740.817 109.609 741.492C110.026 742.166 110.235 742.929 110.235 743.78C110.235 744.776 109.946 745.635 109.368 746.358C108.806 747.08 108.067 747.546 107.152 747.755V747.875C108.196 748.132 109.023 748.638 109.633 749.393C110.243 750.148 110.548 751.135 110.548 752.356C110.548 753.271 110.339 754.098 109.922 754.837C109.504 755.56 108.878 756.13 108.043 756.547C107.208 756.965 106.204 757.174 105.032 757.174C103.33 757.174 101.932 756.732 100.84 755.849C99.748 754.949 99.138 753.681 99.01 752.043H101.129C101.242 753.006 101.635 753.793 102.31 754.403C102.984 755.014 103.884 755.319 105.008 755.319C106.132 755.319 106.983 755.03 107.561 754.451C108.155 753.857 108.453 753.094 108.453 752.163C108.453 750.959 108.051 750.091 107.248 749.561C106.445 749.031 105.233 748.766 103.611 748.766H103.057V746.936H103.635C105.112 746.92 106.228 746.679 106.983 746.213C107.738 745.731 108.115 744.992 108.115 743.997C108.115 743.146 107.834 742.463 107.272 741.949C106.726 741.435 105.939 741.178 104.911 741.178C103.916 741.178 103.113 741.435 102.502 741.949C101.892 742.463 101.531 743.154 101.418 744.021H99.275ZM123.216 743.78C122.863 741.997 121.763 741.106 119.916 741.106C118.486 741.106 117.418 741.66 116.712 742.768C116.005 743.86 115.66 745.667 115.676 748.188C116.045 747.353 116.656 746.703 117.507 746.237C118.374 745.755 119.338 745.514 120.397 745.514C122.052 745.514 123.368 746.028 124.348 747.056C125.344 748.084 125.842 749.505 125.842 751.32C125.842 752.412 125.625 753.392 125.191 754.259C124.774 755.126 124.131 755.817 123.264 756.33C122.413 756.844 121.377 757.101 120.157 757.101C118.502 757.101 117.21 756.732 116.278 755.993C115.347 755.254 114.696 754.235 114.327 752.934C113.958 751.633 113.773 750.027 113.773 748.116C113.773 742.222 115.829 739.275 119.94 739.275C121.514 739.275 122.75 739.701 123.65 740.552C124.549 741.403 125.079 742.479 125.239 743.78H123.216ZM119.94 747.369C119.249 747.369 118.599 747.514 117.989 747.803C117.378 748.076 116.88 748.501 116.495 749.08C116.126 749.642 115.941 750.332 115.941 751.151C115.941 752.372 116.294 753.367 117.001 754.138C117.708 754.893 118.719 755.271 120.036 755.271C121.16 755.271 122.052 754.925 122.71 754.235C123.385 753.528 123.722 752.581 123.722 751.392C123.722 750.14 123.401 749.16 122.758 748.453C122.116 747.731 121.176 747.369 119.94 747.369Z" fill="white"/>
<path d="M617.781 751.977C617.781 751.977 653.785 744.439 670.247 726.975C692.058 703.836 697.089 676.087 720.986 673.233C758.489 668.755 780.23 801.161 825.76 783.247C871.29 765.333 860.53 666.456 887.62 649.697C906.28 638.152 915.98 672.487 942.11 663.53" stroke="white" stroke-width="10.368" stroke-miterlimit="10" stroke-linecap="round"/>
<path opacity="0.7" d="M263.457 643.33C290.371 651.014 353.335 664.746 435.84 655.274C437.166 655.086 438.517 655.188 439.799 655.574C441.081 655.959 442.264 656.62 443.265 657.508C444.266 658.397 445.062 659.493 445.597 660.721C446.132 661.948 446.394 663.277 446.364 664.616V791.949C446.303 794.759 445.253 797.457 443.399 799.568C441.545 801.679 439.005 803.069 436.227 803.492C406.851 807.508 319.627 816.099 254.627 788.035C252.964 787.299 251.556 786.088 250.581 784.552C249.606 783.017 249.109 781.227 249.151 779.409V654.592C249.151 647.209 256.583 641.367 263.457 643.33Z" fill="url(#paint2_linear_1_4)"/>
<path d="M22.053 760.577H25.751C26.438 760.576 27.096 760.303 27.581 759.818C28.067 759.333 28.34 758.674 28.341 757.988V740.973C28.34 740.287 28.067 739.629 27.581 739.143C27.096 738.658 26.438 738.385 25.751 738.384H22.053C21.366 738.385 20.708 738.658 20.223 739.143C19.737 739.629 19.464 740.287 19.463 740.973V757.988C19.464 758.674 19.737 759.333 20.223 759.818C20.708 760.303 21.366 760.576 22.053 760.577Z" fill="white"/>
<path d="M38.373 727.657C36.894 727.657 36.154 728.397 36.154 732.096C36.154 735.612 32.75 738.44 30.56 739.898V758.226C32.929 759.323 37.67 760.947 45.031 760.947H47.398C48.794 760.948 50.144 760.456 51.211 759.557C52.278 758.658 52.993 757.41 53.228 756.035L54.885 746.418C55.032 745.568 54.992 744.697 54.766 743.865C54.541 743.032 54.137 742.259 53.582 741.599C53.026 740.94 52.333 740.409 51.552 740.046C50.77 739.682 49.918 739.494 49.056 739.494H42.072C42.858 737.622 43.237 735.605 43.182 733.576C43.182 729.137 39.853 727.658 38.373 727.658V727.657Z" fill="white"/>
<path d="M145.281 610.646C125.657 603.727 109.749 582.209 109.749 562.585C109.749 542.96 125.657 532.661 145.281 539.581V516.773C113.578 505.594 87.878 522.233 87.878 553.936C87.878 585.639 113.578 620.401 145.281 631.58C175.645 642.286 200.486 627.466 202.532 598.343L180.675 590.636C179.13 608.29 163.879 617.204 145.281 610.646Z" fill="white"/>
<path d="M152.57 512.055V534.862C172.194 541.782 188.102 563.3 188.102 582.924C188.102 583.95 188.049 584.944 187.964 585.918L209.82 593.625C209.91 592.34 209.973 591.038 209.973 589.698C209.973 557.995 184.272 523.233 152.57 512.055Z" fill="#5ABCB9"/>
<path d="M145.281 610.646V631.58" stroke="white" stroke-width="2.42819" stroke-miterlimit="10"/>
<path d="M109.749 562.585L87.878 554.873" stroke="white" stroke-width="2.42819" stroke-miterlimit="10"/>
<path d="M237.337 565.845L277.92 573.557" stroke="white" stroke-width="10.368" stroke-miterlimit="10" stroke-linecap="round"/>
<path opacity="0.4" d="M237.337 629.434L277.92 637.146" stroke="white" stroke-width="10.368" stroke-miterlimit="10" stroke-linecap="round"/>
<path d="M237.337 598.287L295.642 609.366" stroke="white" stroke-width="10.368" stroke-miterlimit="10" stroke-linecap="round"/>
<g opacity="0.7">
<path opacity="0.7" d="M969.27 20.3284C934.1 46.15 869.77 111.264 729.366 132.898C718.617 134.554 714.592 142.202 714.592 150.653V328.673C714.652 331.143 715.561 333.517 717.167 335.395C718.772 337.273 720.976 338.541 723.407 338.984C758.822 344.946 895.21 310.155 976.77 240.11C984.56 233.42 984.56 222.197 984.56 219.865V29.21C984.56 21.3 975.29 15.9091 969.27 20.3284Z" fill="url(#paint3_linear_1_4)"/>
</g>
<path d="M733.156 164.621V274.73C733.155 275.689 733.37 276.635 733.784 277.499C734.198 278.363 734.802 279.123 735.549 279.723C736.297 280.322 737.17 280.746 738.103 280.963C739.037 281.179 740.007 281.183 740.943 280.974C760.999 276.482 815.25 263.495 849.51 247.332C850.61 246.814 851.53 245.995 852.18 244.971C852.82 243.947 853.17 242.76 853.16 241.549V134.321C853.17 133.249 852.9 132.194 852.38 131.252C851.87 130.311 851.13 129.515 850.22 128.936C849.32 128.357 848.29 128.014 847.22 127.939C846.15 127.864 845.08 128.059 844.1 128.507C825.01 137.3 779.13 156.508 739.225 158.236C737.586 158.314 736.04 159.022 734.91 160.211C733.779 161.4 733.151 162.98 733.156 164.621Z" fill="white"/>
<path d="M738.115 257.006V268.587C738.115 269.464 738.317 270.329 738.706 271.115C739.095 271.901 739.659 272.587 740.356 273.119C741.053 273.651 741.864 274.015 742.724 274.182C743.585 274.35 744.473 274.317 745.318 274.086L805.33 257.679C806.28 257.421 807.14 256.923 807.84 256.233C808.54 255.543 809.04 254.686 809.31 253.742C809.58 252.799 809.6 251.803 809.37 250.85C809.14 249.896 808.67 249.018 808.01 248.3L775.83 213.683C775.25 213.062 774.55 212.577 773.76 212.265C772.97 211.952 772.12 211.819 771.274 211.876C770.428 211.933 769.605 212.178 768.866 212.593C768.126 213.009 767.488 213.584 766.999 214.277L739.158 253.718C738.479 254.68 738.115 255.828 738.115 257.006Z" fill="#5ABCB9"/>
<path opacity="0.6" d="M799.3 229.843L817.31 248.953C817.89 249.568 818.64 249.996 819.46 250.181C820.28 250.367 821.14 250.302 821.93 249.995C827.25 247.917 839.2 243.219 845.25 240.617C846.01 240.289 846.65 239.747 847.11 239.056C847.56 238.365 847.8 237.556 847.8 236.729V218.823C847.8 217.909 847.5 217.02 846.96 216.289L821.64 182.371C821.18 181.762 820.57 181.286 819.87 180.994C819.17 180.702 818.4 180.604 817.65 180.71C816.9 180.817 816.19 181.123 815.59 181.598C815 182.073 814.55 182.698 814.28 183.409L798.42 225.442C798.14 226.185 798.07 226.991 798.23 227.769C798.38 228.547 798.76 229.265 799.3 229.843Z" fill="#5ABCB9"/>
<path d="M783.49 200.004C788.83 200.004 793.16 195.676 793.16 190.336C793.16 184.996 788.83 180.668 783.49 180.668C778.15 180.668 773.82 184.996 773.82 190.336C773.82 195.676 778.15 200.004 783.49 200.004Z" fill="#FEBB94"/>
<path d="M881.04 124.914C905.85 112.332 929.73 97.987 952.49 81.991" stroke="white" stroke-width="10.368" stroke-miterlimit="10" stroke-linecap="round"/>
<path d="M881.04 166.679C881.04 166.679 897.3 158.754 919.61 145.218" stroke="white" stroke-width="10.368" stroke-miterlimit="10" stroke-linecap="round"/>
<path d="M881.04 207.512C905.85 194.929 929.73 180.585 952.49 164.589" stroke="white" stroke-width="10.368" stroke-miterlimit="10" stroke-linecap="round"/>
<path d="M881.04 253.356C905.85 240.773 929.73 226.429 952.49 210.433" stroke="white" stroke-width="10.368" stroke-miterlimit="10" stroke-linecap="round"/>
<path d="M746.945 312.729C751.822 312.729 755.776 308.776 755.776 303.899C755.776 299.022 751.822 295.068 746.945 295.068C742.068 295.068 738.115 299.022 738.115 303.899C738.115 308.776 742.068 312.729 746.945 312.729Z" fill="white"/>
<path d="M798.15 298.442C803.02 298.442 806.98 294.489 806.98 289.612C806.98 284.735 803.02 280.782 798.15 280.782C793.27 280.782 789.32 284.735 789.32 289.612C789.32 294.489 793.27 298.442 798.15 298.442Z" fill="white"/>
<path d="M844.33 282.668C849.21 282.668 853.16 278.714 853.16 273.837C853.16 268.96 849.21 265.007 844.33 265.007C839.46 265.007 835.5 268.96 835.5 273.837C835.5 278.714 839.46 282.668 844.33 282.668Z" fill="white"/>
<defs>
<linearGradient id="paint0_linear_1_4" x1="417.676" y1="-764.866" x2="777.7" y2="1467.48" gradientUnits="userSpaceOnUse">
<stop stop-color="white"/>
<stop offset="0.9999" stop-color="#E2ECFF"/>
<stop offset="1" stop-color="#94B9FF"/>
</linearGradient>
<linearGradient id="paint1_linear_1_4" x1="595.285" y1="467.316" x2="619.901" y2="807.944" gradientUnits="userSpaceOnUse">
<stop stop-color="white"/>
<stop offset="1" stop-color="#94B9FF"/>
</linearGradient>
<linearGradient id="paint2_linear_1_4" x1="342.848" y1="642.554" x2="374.688" y2="993.6" gradientUnits="userSpaceOnUse">
<stop stop-color="white"/>
<stop offset="1" stop-color="#94B9FF"/>
</linearGradient>
<linearGradient id="paint3_linear_1_4" x1="817.02" y1="-381.274" x2="1019.39" y2="674.305" gradientUnits="userSpaceOnUse">
<stop stop-color="white"/>
<stop offset="1" stop-color="#94B9FF"/>
</linearGradient>
</defs>
</svg>
